<svg width="75" height="51" viewBox="0 0 75 51" fill="none" xmlns="http://www.w3.org/2000/svg">
    <g clip-path="url(#clip0_65_2514)">
        <path fill-rule="evenodd" clip-rule="evenodd" d="M22.5287 32.8573V38.1407L37.4473 45.5328L52.366 38.1407L57.058 35.8155V41.037L52.366 43.3635L37.4473 50.7557L17.8367 41.037V30.7432L22.5287 32.8573ZM47.6888 16.6578L57.0633 20.9762V32.7041L52.3714 35.0306V27.7205L37.4527 34.4406L25.1536 28.8992L16.6164 25.0526L14.8785 24.269V48.0945H12.6932V23.2879L0.0270996 17.5798C12.5014 11.9591 24.9757 6.33799 37.45 0.7164L74.873 17.5798L69.173 20.1483L63.473 17.5798L37.45 5.85325L11.4271 17.5798L14.9726 19.1765L21.7505 16.1229L24.4009 17.3164L17.6244 20.37L37.4514 29.3037L50.8499 23.2664L42.0331 19.2048L47.6888 16.6578ZM14.8745 46.6416L17.248 50.753H10.3196L12.6932 46.6416" fill="#C246BE"/>
    </g>
    <defs>
        <clipPath id="clip0_65_2514">
            <rect width="74.8459" height="50.0433" fill="white" transform="translate(0.0275879 0.716431)"/>
        </clipPath>
    </defs>
</svg>
